# xmcd CD database file
#
# Track frame offsets:
#	150
#	20987
#	40202
#	63265
#	82237
#	110127
#	132100
#	153085
#	176752
#	196112
#	219925
#
# Disc length: 3155 seconds
#
# Revision: 11
# Processed by: cddbd v1.5.2PL0 Copyright (c) Steve Scherf et al.
# Submitted via: CDex 1.50
#
DISCID=970c510b
DTITLE=Kenny G - Paradise
DYEAR=2002
DGENRE=Jazz
TTITLE0=Brazil
TTITLE1=Paradise
TTITLE2=Malibu Dreams
TTITLE3=One More Time (Feat. Chanté Moore)
TTITLE4=Spanish Nights
TTITLE5=Seaside Jam
TTITLE6=Ocean Breeze
TTITLE7=Falling In The Moonlight
TTITLE8=All The Way (Feat. Brian McKnight)
TTITLE9=Midnight Magic
TTITLE10=Peace
EXTD=YEAR: 2002
EXTT0=
EXTT1=
EXTT2=
EXTT3=
EXTT4=Featuring Chante Moore
EXTT5=
EXTT6=
EXTT7=
EXTT8=
EXTT9=Featuring Brian McKnight
EXTT10=
PLAYORDER=
